<svg xmlns="http://www.w3.org/2000/svg" viewBox="0 0 750 750" width="750" height="750">
  <title>Bruce</title>
  <!-- Traced from docs/branding/logo-idea.jpeg with vtracer 0.6.4, mirrored to look left to right and recoloured reddish-tan. -->
  <g transform="translate(750 0) scale(-1 1)">
    <path d="M0 0 C16.08 12.1 29.52 25.29 41.31 41.62 C41.75 42.22 42.18 42.82 42.63 43.43 C45.13 46.91 46.95 50.27 48.69 54.19 C51.14 58.44 53.69 59.43 58.21 60.68 C59.79 61.06 61.37 61.44 62.95 61.81 C76.77 65.03 87.32 71.49 97.19 81.62 C98.43 82.86 98.43 82.86 99.69 84.11 C125.19 109.77 125.19 109.77 125.19 121.62 C121.41 120.97 117.97 119.9 114.38 118.56 C113.4 118.2 112.42 117.84 111.42 117.46 C110.68 117.19 109.95 116.91 109.19 116.62 C109.96 117.67 110.73 118.71 111.53 119.78 C118.08 128.74 123.74 137.66 128.34 147.77 C129.13 149.5 129.96 151.22 130.8 152.93 C137.77 167.91 140.73 184.42 144.3 200.47 C150.38 227.76 158.55 248.8 174.43 272.08 C189.99 294.91 195.82 316.52 197.3 343.89 C198.23 361 200.19 377.77 206.23 393.89 C207.19 396.62 207.19 396.62 207.19 399.62 C196.93 394.93 191.34 384.31 187.41 374.21 C183.19 362.77 183.19 362.77 183.19 357.62 C182.53 357.62 181.87 357.62 181.19 357.62 C181.85 382.87 188.07 402.01 198.14 425.1 C207.25 446.55 207.04 468.46 198.69 490.16 C193.64 501.83 187.3 511.86 179.19 521.62 C178.71 522.2 178.24 522.78 177.75 523.37 C165.12 538.66 165.12 538.66 158.19 542.62 C156.99 543.4 155.8 544.19 154.62 545 C154.07 545.38 153.51 545.76 152.93 546.15 C151.06 547.63 151.06 547.63 149.46 549.89 C146.47 553.48 143.03 556.13 139.31 558.94 C138.56 559.51 137.81 560.08 137.03 560.67 C125.09 569.58 106.57 582.62 91.19 582.62 C91.19 581.97 91.19 581.3 91.19 580.62 C92.14 579.86 93.09 579.1 94.06 578.31 C114.11 561.58 125.04 533.11 131.19 508.62 C131.38 507.93 131.58 507.23 131.78 506.51 C133.63 499.43 133.53 492.34 133.5 485.06 C133.5 484.06 133.5 484.06 133.49 483.04 C133.45 472.92 132.91 463.43 130.19 453.62 C129.85 452.37 129.51 451.11 129.16 449.82 C125.39 436.67 119.99 424.01 114.5 411.5 C108.45 397.17 105.88 382.64 105.75 367.19 C105.74 366.09 105.74 366.09 105.73 364.96 C105.68 351.65 106.69 337.44 113.34 325.56 C114.51 323.48 114.51 323.48 113.19 320.62 C97.35 349.78 94.71 378.11 103.85 409.93 C105.63 415.84 107.76 421.59 110.09 427.31 C125.3 465.16 127.86 498.9 111.77 536.85 C105.14 551.97 95.83 565.27 85.25 577.88 C84.79 578.42 84.33 578.97 83.85 579.54 C79.53 584.59 76.25 586.25 69.73 586.85 C50.13 587.76 38.97 584.08 24.19 570.62 C23.55 570.07 22.92 569.52 22.27 568.95 C8.3 556.04 -2.27 535.53 -3.12 516.55 C-3.42 502.14 -0.45 491.15 4.82 477.77 C16.29 448.05 13.7 421.25 1.16 392.59 C-4.67 379.02 -6.6 366.26 -5.81 351.62 C-5.77 350.63 -5.72 349.64 -5.67 348.62 C-3.92 332.41 5.93 316.57 13.98 302.72 C16.1 299.05 18.14 295.33 20.19 291.62 C20.52 291.62 20.85 291.62 21.19 291.62 C20.19 299.62 20.19 299.62 19.68 303.22 C18.8 310.35 18.88 317.53 18.84 324.7 C18.82 326.51 18.79 328.31 18.76 330.11 C18.21 355.81 26.67 375.2 39.47 396.97 C45.23 406.8 50.94 416.63 54.19 427.62 C54.41 428.37 54.64 429.12 54.87 429.89 C59.97 450.43 54.21 472.89 47.55 492.36 C44.83 500.6 43.83 508.2 43.88 516.88 C43.88 517.89 43.88 518.9 43.89 519.95 C44 527.58 44.8 534.34 47.19 541.62 C47.48 542.56 47.77 543.5 48.07 544.46 C52.07 556.42 58.42 566.6 67.19 575.62 C68.18 575.96 69.17 576.28 70.19 576.62 C69.89 576.16 69.59 575.7 69.29 575.23 C62.58 564.71 56.65 554.29 52.19 542.62 C51.83 541.72 51.47 540.82 51.1 539.89 C45.71 523.93 49.59 507.07 54.87 491.73 C63.21 467.49 68.49 443.65 60.19 418.62 C59.81 417.47 59.43 416.31 59.04 415.11 C55.68 405.89 50.92 397.61 46.02 389.13 C41.6 381.46 37.68 373.76 34.19 365.62 C33.87 364.91 33.54 364.2 33.21 363.46 C32.4 361.54 31.77 359.64 31.19 357.62 C30.77 356.21 30.77 356.21 30.35 354.76 C22.03 320.91 31.77 282.62 40.85 249.86 C54.18 201.77 55.87 151.65 31.18 106.67 C25.41 96.56 18.14 88.05 10.19 79.62 C11.7 83.85 13.88 87.47 16.25 91.25 C32.19 117.33 41.41 146.13 41.31 176.75 C41.32 177.98 41.32 179.21 41.32 180.48 C41.31 192.44 40.77 204.24 38.44 216 C38.26 216.89 38.09 217.79 37.91 218.71 C36.24 226.9 33.94 234.75 31.19 242.62 C30.58 244.44 30.58 244.44 29.96 246.29 C23.67 264.42 14.69 281.52 4.94 298 C4.29 299.1 3.64 300.2 2.97 301.33 C-1.27 308.38 -5.89 315.03 -10.81 321.62 C-21.29 335.97 -30.32 349.55 -35.81 366.62 C-36.12 367.48 -36.43 368.34 -36.75 369.22 C-38.45 373.98 -39.51 378.56 -39.81 383.62 C-39.89 384.85 -39.89 384.85 -39.97 386.09 C-40.35 397.72 -38.26 409.63 -35.62 420.94 C-33.29 432.29 -34.54 442.95 -38.81 453.62 C-39.21 454.63 -39.61 455.64 -40.03 456.68 C-43.8 465.11 -50.82 476.04 -59.81 479.62 C-60.3 476.98 -60.77 474.33 -61.25 471.69 C-61.38 470.95 -61.52 470.22 -61.66 469.46 C-61.86 468.35 -61.86 468.35 -62.06 467.22 C-62.18 466.56 -62.3 465.89 -62.42 465.21 C-63.64 457.13 -63.99 449.21 -64.02 441.04 C-64.02 439.83 -64.03 438.63 -64.03 437.38 C-64.04 434.82 -64.05 432.26 -64.05 429.7 C-64.06 425.89 -64.09 422.08 -64.12 418.26 C-64.32 373.17 -55.31 331.44 -37.51 290.12 C-35.29 284.92 -33.41 279.69 -31.71 274.3 C-30.79 271.56 -29.72 268.95 -28.56 266.31 C-12.29 227.71 -3.29 183.36 -10.81 141.62 C-11.11 139.8 -11.4 137.97 -11.7 136.14 C-13.32 126.2 -15.18 116.45 -17.93 106.75 C-19.06 102.74 -19.95 98.7 -20.81 94.62 C-21.47 94.62 -22.13 94.62 -22.81 94.62 C-22.55 95.74 -22.28 96.85 -22.01 98 C-21.65 99.54 -21.29 101.08 -20.94 102.62 C-20.76 103.35 -20.59 104.07 -20.41 104.82 C-17.16 119.02 -16.43 133.12 -16.5 147.62 C-16.5 148.48 -16.5 149.33 -16.51 150.21 C-16.63 180.44 -21.64 209.93 -33.56 237.88 C-33.91 238.69 -34.25 239.5 -34.61 240.34 C-38.02 248.27 -41.83 255.96 -45.81 263.62 C-46.23 264.44 -46.66 265.26 -47.09 266.1 C-55.65 282.68 -55.65 282.68 -60.21 290.6 C-70.27 308.12 -77.73 326.11 -83.94 345.31 C-91.33 368.03 -91.33 368.03 -96 378.61 C-96.31 379.32 -96.62 380.03 -96.93 380.75 C-102.13 392.13 -110.24 401.63 -118.81 410.62 C-119.6 411.52 -119.6 411.52 -120.4 412.44 C-129.59 422.52 -141.86 428.92 -154.81 432.62 C-155.58 432.87 -156.34 433.11 -157.12 433.36 C-172.44 437.63 -188.86 433.43 -203.8 429.62 C-204.94 429.33 -206.08 429.05 -207.25 428.75 C-208.22 428.48 -209.19 428.22 -210.18 427.95 C-213.38 427.56 -214.86 428.42 -217.81 429.62 C-219.47 430.02 -221.13 430.36 -222.8 430.66 C-223.75 430.83 -224.69 431 -225.67 431.17 C-226.66 431.34 -227.66 431.51 -228.69 431.69 C-229.72 431.86 -230.75 432.04 -231.81 432.22 C-239.83 433.55 -247.68 434.42 -255.81 434.62 C-257.08 434.66 -258.34 434.7 -259.65 434.75 C-286.18 435.19 -310.68 430.01 -330.75 411.63 C-334.88 407.61 -337.01 404.66 -337.19 398.88 C-337.12 394.93 -337.12 394.93 -334.81 392.62 C-329.67 392.5 -324.5 393.86 -319.54 395.08 C-312.18 396.88 -305.35 397.76 -297.77 397.75 C-283.59 397.74 -273.08 401.4 -260.35 407.44 C-254.99 409.94 -249.46 411.86 -243.81 413.62 C-242.61 414.02 -241.41 414.41 -240.18 414.81 C-223.47 419.76 -197.91 421.67 -181.81 413.62 C-180.25 413.56 -178.68 413.56 -177.12 413.6 C-176.18 413.61 -175.23 413.62 -174.26 413.63 C-172.28 413.67 -170.3 413.71 -168.33 413.75 C-153.63 413.92 -140.89 409.48 -129.81 399.62 C-124.12 393.44 -120.54 388.18 -120.81 379.62 C-122.76 377.29 -122.76 377.29 -126.25 377.06 C-134.37 377.3 -140.99 383.87 -146.88 388.88 C-157.7 397.92 -170.26 405.58 -183.81 409.62 C-184.82 409.94 -185.84 410.26 -186.88 410.58 C-210.36 416.77 -239.15 412.46 -260.81 401.62 C-260.81 400.96 -260.81 400.31 -260.81 399.62 C-261.42 399.37 -262.02 399.11 -262.64 398.84 C-265 397.52 -266 396.4 -267.55 394.2 C-268.28 393.17 -268.28 393.17 -269.02 392.12 C-269.79 391.01 -269.79 391.01 -270.56 389.88 C-271.36 388.72 -271.36 388.72 -272.17 387.55 C-281.44 373.97 -297.64 349.84 -295.57 332.57 C-294.65 330.2 -293.45 328.89 -291.69 327.06 C-287.38 322.31 -284.13 317.09 -280.81 311.62 C-280.26 310.76 -279.71 309.9 -279.14 309.02 C-274.18 301.13 -270.33 293.16 -271.81 283.62 C-274.59 274.4 -282.61 267.52 -290.83 263.04 C-302.19 257.66 -313.7 257.01 -326.06 257.16 C-328.64 257.19 -331.22 257.18 -333.8 257.17 C-344.52 257.18 -353.93 257.67 -363.19 263.69 C-366.01 265.5 -368.78 267.18 -371.81 268.62 C-369.85 255.79 -350 240.73 -341.12 231.81 C-340.33 231.01 -339.53 230.21 -338.71 229.39 C-334.49 225.18 -330.19 221.15 -325.67 217.27 C-322.75 214.69 -320.04 211.91 -317.31 209.12 C-313.33 205.09 -309.3 201.23 -304.97 197.56 C-301.97 194.86 -299.15 191.99 -296.31 189.12 C-289.6 182.34 -289.6 182.34 -285.94 179.25 C-254.72 152.47 -245.4 122.46 -238.28 82.9 C-233.45 56.24 -226.34 31.8 -208.81 10.62 C-208.13 9.78 -207.44 8.93 -206.74 8.05 C-191.86 -9.49 -170.27 -21.57 -148.98 -29.55 C-147 -30.3 -145.06 -31.13 -143.12 -31.97 C-100.64 -48.43 -35.02 -25.54 0 0 Z " fill="#F98B50" transform="translate(472.8125,90.375)"/>
    <path d="M0 0 C-2.64 1.76 -4.36 2.55 -7.32 3.45 C-18.82 7.04 -29.49 11.11 -40 17 C-40.65 17.36 -41.3 17.73 -41.98 18.1 C-50.23 22.76 -57.8 27.8 -65 34 C-65.75 34.6 -66.49 35.2 -67.26 35.82 C-94.8 58.76 -102.42 95.1 -108.47 128.56 C-115.93 169.51 -131.49 196.1 -163.16 223.37 C-166.08 225.95 -168.78 228.72 -171.5 231.5 C-175.49 235.54 -179.52 239.39 -183.84 243.06 C-187.4 246.26 -190.74 249.7 -194.08 253.12 C-196.89 255.97 -199.75 258.69 -202.79 261.3 C-207.72 265.56 -212.33 270.14 -216.94 274.75 C-217.82 275.63 -218.7 276.52 -219.61 277.43 C-225.48 283.35 -230.97 289.34 -236 296 C-237.07 297.29 -237.07 297.29 -238.16 298.6 C-240.16 300.94 -240.16 300.94 -241 304 C-240.02 303.29 -240.02 303.29 -239.02 302.57 C-229.02 295.45 -220.52 291.7 -208.21 291.66 C-207.4 291.66 -206.58 291.65 -205.73 291.64 C-204.01 291.63 -202.28 291.63 -200.56 291.63 C-197.97 291.63 -195.38 291.59 -192.79 291.55 C-175.26 291.43 -160.78 294.57 -147.56 306.94 C-143.07 311.74 -139.91 316.5 -139.44 323.19 C-140.32 338.85 -153.19 356.19 -164 367 C-163.58 390.4 -146.22 416.68 -132 434 C-131.34 434.33 -130.68 434.66 -130 435 C-130 435.66 -130 436.32 -130 437 C-129.4 437.16 -128.81 437.32 -128.19 437.48 C-123.73 438.68 -119.29 439.9 -114.87 441.24 C-114.15 441.46 -113.43 441.68 -112.68 441.9 C-111.27 442.33 -109.86 442.76 -108.46 443.2 C-98.75 446.13 -89.32 447.37 -79.19 447.31 C-78.14 447.31 -77.08 447.3 -76 447.3 C-50.36 446.9 -30.52 435.02 -11.05 419.43 C-1.44 411.78 -1.44 411.78 4.31 411.5 C8 412 8 412 9.72 413.28 C11.31 415.41 11.4 416.37 11.19 419 C9.72 428.6 1.88 435.77 -5.55 441.35 C-8.9 443.61 -12.26 445.45 -16 447 C-16.91 447.39 -17.81 447.78 -18.75 448.19 C-25.85 449.96 -33.07 450.05 -40.35 449.91 C-47.17 449.79 -53.06 450.06 -59.61 452.25 C-85.64 460.44 -117.12 451.14 -140.55 439.19 C-149.27 434.75 -156.77 434.46 -166.45 434.33 C-174.92 434.18 -182.64 432.95 -190.84 430.94 C-195.16 429.9 -199.56 429.13 -204 429 C-205.52 430.52 -205.35 431.88 -205.5 434 C-205.41 440.22 -202.23 443.72 -198 448 C-188.75 456.93 -175.44 463.1 -163 466 C-162.29 466.19 -161.58 466.38 -160.85 466.58 C-138.63 472.19 -105.34 471.29 -83.81 462.73 C-78.13 461.64 -73.49 463.26 -68 464.81 C-47.05 470.51 -27.43 471.34 -7.86 460.75 C23.74 441.44 36.47 411.36 47.08 377.41 C54.72 353.12 65.81 331.26 78.65 309.33 C85.26 297.92 90.98 286.18 96 274 C96.3 273.29 96.59 272.59 96.9 271.86 C104.85 252.8 109.15 233.43 112 213 C112.16 211.87 112.16 211.87 112.32 210.71 C113.35 202.04 113.28 193.28 113.31 184.56 C113.32 183.71 113.32 182.85 113.32 181.96 C113.35 167.49 112.14 153.73 109.46 139.48 C108.88 136.33 108.42 133.18 108 130 C108.66 130 109.32 130 110 130 C114.37 142.87 117.63 155.62 120 169 C120.32 170.75 120.32 170.75 120.65 172.54 C127.34 210.33 122.47 251.28 108.76 286.99 C107.14 291.27 105.68 295.62 104.18 299.94 C101.66 307.13 98.8 314.18 95.77 321.17 C83.26 350.13 74.03 379.67 70 411 C69.86 412.09 69.86 412.09 69.71 413.21 C67.91 427.51 67.66 441.74 67.68 456.14 C67.69 459.93 67.66 463.72 67.64 467.51 C67.6 481.31 68.39 494.49 70.72 508.09 C71.06 510.41 71.11 512.66 71 515 C83.3 505.06 92.45 491.88 95 476 C96.03 465.28 94.18 455.39 91.97 444.95 C86.65 419.17 93.47 394.69 107.61 372.89 C111.73 366.74 116.08 360.87 120.75 355.12 C128.81 345 134.76 333.29 141 322 C141.57 320.98 142.13 319.96 142.72 318.91 C150.01 305.65 156.08 292.3 161 278 C161.37 276.95 161.37 276.95 161.75 275.87 C164.58 267.84 166.61 259.74 168.25 251.38 C168.41 250.55 168.58 249.73 168.75 248.88 C172.81 226.81 173.25 201.89 168 180 C167.83 179.28 167.67 178.56 167.5 177.81 C162.62 157.13 153.74 135.72 140.9 118.66 C140.6 118.11 140.31 117.57 140 117 C140.33 116.01 140.66 115.02 141 114 C154.54 126.54 164.66 142.38 170.83 159.74 C171.8 162.45 172.86 165.08 173.97 167.73 C176.04 172.87 177.44 178.04 178.69 183.44 C178.9 184.3 179.11 185.17 179.33 186.06 C187.37 220.19 180.98 256.05 171.65 289.09 C159.9 330.84 151.13 377.52 173.21 417.18 C174.87 420.05 176.57 422.9 178.28 425.74 C193.37 450.81 200.33 476.09 193.55 505.25 C191.27 514.13 188.35 522.86 185.44 531.55 C185.22 532.21 185.01 532.86 184.78 533.53 C184.18 535.33 183.57 537.11 182.97 538.9 C177.01 557.96 182.17 576.19 190.9 593.32 C193.57 598.39 196.54 603.22 199.75 607.96 C201 610 201 610 201 612 C196.06 611.48 193.9 607.9 190.94 604.27 C176.31 585.74 172.48 564.17 174 541 C174.72 535.82 176.33 530.94 178 526 C187.43 496.34 189.59 470.85 175.36 442.46 C172.83 437.58 170 432.94 167.04 428.3 C156.88 411.9 148.64 394.18 148.73 374.54 C148.73 373.67 148.73 372.8 148.73 371.9 C148.73 370.07 148.73 368.24 148.74 366.41 C148.75 363.64 148.74 360.87 148.73 358.1 C148.72 342.05 148.72 342.05 150.57 334.07 C151.14 331.7 151.14 331.7 151 328 C148.96 331.92 146.92 335.83 144.88 339.75 C144.31 340.84 143.74 341.93 143.15 343.06 C135.48 357.34 135.48 357.34 129.19 372.25 C128.79 373.35 128.39 374.45 127.98 375.58 C122.61 394.3 126.36 413.76 134.35 431.04 C137.62 438.14 139.94 445.45 142 453 C142.19 453.69 142.38 454.37 142.57 455.08 C144.1 461.16 144.3 467 144.25 473.25 C144.26 474.2 144.27 475.14 144.27 476.12 C144.24 489.44 141.29 500.96 136.5 513.25 C128.24 534.66 125.29 554.27 134.7 576.02 C143.36 594.95 156.72 609.07 175 619 C175 619.66 175 620.32 175 621 C158.55 618.93 146.89 608.31 136.62 596 C124.4 579.89 117.39 561.95 117.5 541.69 C117.5 540.5 117.51 539.32 117.52 538.09 C117.7 528.8 119.11 521.51 123 513 C123.54 511.75 124.07 510.49 124.6 509.24 C125.59 506.88 126.62 504.55 127.67 502.22 C134.52 485.65 134.72 463.4 128.56 446.63 C126.65 442.18 124.65 437.79 122.53 433.44 C119.65 427.48 117.65 421.4 116 415 C115.82 414.34 115.64 413.67 115.46 412.99 C113.99 407.09 113.7 401.5 113.75 395.44 C113.74 394.54 113.73 393.65 113.73 392.73 C113.74 387.15 114.43 382.35 116 377 C115.34 377 114.68 377 114 377 C113.61 378.28 113.61 378.28 113.21 379.59 C111.95 383.13 110.38 386.29 108.62 389.62 C99.12 408.1 98 426.93 101.5 447.25 C105 467.83 103.31 485.99 91.15 503.69 C86.53 509.71 80.9 516.55 74 520 C73.6 526.3 75.06 531.56 76.88 537.56 C77.14 538.48 77.41 539.4 77.69 540.35 C79.04 544.93 80.45 549.48 82 554 C79.48 554.82 76.96 555.63 74.44 556.44 C73.38 556.78 73.38 556.78 72.3 557.13 C67.86 558.55 63.63 559.47 59 560 C49.11 528.11 44.72 488.18 50 455 C50.21 451.79 50.32 448.59 50.44 445.38 C50.78 437.45 51.53 429.8 53 422 C52.34 422 51.68 422 51 422 C50.8 422.65 50.6 423.31 50.39 423.98 C48.44 428.21 45.67 431.6 42.81 435.25 C41.93 436.39 41.93 436.39 41.02 437.55 C39.86 439.05 38.7 440.54 37.54 442.03 C35.75 444.32 34 446.63 32.25 448.94 C29.07 453.02 25.61 456.84 22.11 460.66 C20.38 462.58 18.74 464.54 17.12 466.56 C-0.14 486.83 -28.49 500.69 -54.85 502.82 C-60.42 503.14 -66 503.19 -71.58 503.19 C-73.63 503.19 -75.68 503.21 -77.73 503.22 C-84.77 503.25 -91.19 502.9 -98 501 C-97.97 501.92 -97.95 502.84 -97.92 503.79 C-97.16 534.79 -99.54 558.1 -121 582 C-122.03 583.17 -122.03 583.17 -123.07 584.36 C-129.2 590.93 -136.29 595.52 -144 600 C-144.99 600.58 -145.98 601.16 -147 601.76 C-162 609.88 -182.02 613.28 -199 612 C-199.71 611.97 -200.42 611.93 -201.14 611.9 C-213.23 610.37 -225.24 597.12 -232.3 588.04 C-241.53 575.21 -249.21 561.07 -250 545 C-250.08 543.7 -250.15 542.4 -250.23 541.07 C-250.78 527.4 -248.22 514.94 -241.9 502.76 C-240.15 499.32 -239.08 495.7 -238 492 C-237.79 491.34 -237.58 490.67 -237.37 489.99 C-234.19 478.3 -235.96 464.91 -237 453 C-237.66 453 -238.32 453 -239 453 C-238.98 453.94 -238.95 454.89 -238.93 455.86 C-238.68 473.76 -243.6 486.94 -250.96 503.11 C-259.87 522.75 -263.18 544.83 -255.48 565.55 C-254.75 567.26 -254.75 567.26 -254 569 C-253.3 570.64 -253.3 570.64 -252.58 572.32 C-249.5 578.92 -245.67 584.44 -241 590 C-240.28 590.99 -239.56 591.98 -238.81 593 C-234.79 597.84 -229.09 601.35 -224 605 C-227.87 606.27 -229.84 605.45 -233.48 603.65 C-234.17 603.29 -234.86 602.93 -235.56 602.56 C-236.27 602.2 -236.99 601.83 -237.72 601.45 C-257.51 591.01 -270.74 575.67 -278.2 554.63 C-285.65 529.57 -279.38 506.7 -271.23 482.9 C-268.32 474.31 -266.22 465.99 -265 457 C-264.83 455.91 -264.66 454.83 -264.49 453.71 C-261.98 434.63 -264.02 415.03 -267.42 396.23 C-276.21 347.49 -270.45 310.31 -243 269 C-243.68 269.57 -244.37 270.13 -245.07 270.71 C-248.22 273.17 -251.46 275.4 -254.81 277.56 C-255.43 277.96 -256.04 278.36 -256.67 278.77 C-260.98 281.49 -265.1 283.53 -270 285 C-270 280.81 -267.64 278.87 -265.06 275.81 C-259.02 268.37 -254.35 260.52 -250 252 C-249.51 251.05 -249.51 251.05 -249.02 250.07 C-241.25 234.64 -237.14 219.08 -234 202.19 C-227.89 169.52 -227.89 169.52 -221.31 154.38 C-220.98 153.6 -220.65 152.82 -220.3 152.02 C-215.05 140.16 -207.6 129.46 -200 119 C-206.95 122.3 -206.95 122.3 -213.5 126.31 C-216 128 -216 128 -218 128 C-212.94 108.09 -194.14 91.23 -177 81 C-168.49 76.15 -159.9 71.37 -150.67 68.06 C-146.05 66.26 -143.86 64.11 -141.06 59.94 C-140.23 58.77 -139.4 57.6 -138.55 56.45 C-138.14 55.87 -137.72 55.29 -137.28 54.69 C-122.86 35.72 -99.04 22.14 -77 14 C-76.26 13.72 -75.52 13.45 -74.75 13.16 C-50.82 4.35 -25.55 -0.74 0 0 Z " fill="#F88C51" transform="translate(342,55)"/>
    <path d="M0 0 C21.23 16.72 32.52 44.14 38.75 69.69 C38.96 70.54 39.17 71.4 39.39 72.28 C47.35 106.34 40.96 142.12 31.65 175.09 C19.9 216.84 11.13 263.52 33.21 303.18 C34.87 306.05 36.57 308.9 38.28 311.74 C53.37 336.81 60.33 362.09 53.55 391.25 C51.27 400.13 48.35 408.86 45.44 417.55 C45.22 418.21 45.01 418.86 44.78 419.53 C44.18 421.33 43.57 423.11 42.97 424.9 C37.01 443.96 42.17 462.19 50.9 479.32 C53.57 484.39 56.54 489.22 59.75 493.96 C61 496 61 496 61 498 C56.06 497.48 53.9 493.9 50.94 490.27 C36.31 471.74 32.48 450.17 34 427 C34.72 421.82 36.33 416.94 38 412 C47.43 382.34 49.59 356.85 35.36 328.46 C32.83 323.58 30 318.94 27.04 314.3 C16.88 297.9 8.64 280.18 8.73 260.54 C8.73 259.67 8.73 258.8 8.73 257.9 C8.73 256.07 8.73 254.24 8.74 252.41 C8.75 249.64 8.74 246.87 8.73 244.1 C8.72 228.05 8.72 228.05 10.57 220.07 C11.14 217.7 11.14 217.7 11 214 C8.96 217.92 6.92 221.83 4.88 225.75 C4.31 226.84 3.74 227.93 3.15 229.06 C-4.52 243.34 -4.52 243.34 -10.81 258.25 C-11.21 259.35 -11.61 260.45 -12.02 261.58 C-17.39 280.3 -13.64 299.76 -5.65 317.04 C-2.38 324.14 -0.06 331.45 2 339 C2.19 339.69 2.38 340.37 2.57 341.08 C4.1 347.16 4.3 353 4.25 359.25 C4.26 360.2 4.27 361.14 4.27 362.12 C4.24 375.44 1.29 386.96 -3.5 399.25 C-11.76 420.66 -14.71 440.27 -5.3 462.02 C3.36 480.95 16.72 495.07 35 505 C35 505.66 35 506.32 35 507 C18.55 504.93 6.89 494.31 -3.38 482 C-15.6 465.89 -22.61 447.95 -22.5 427.69 C-22.5 426.5 -22.49 425.32 -22.48 424.09 C-22.3 414.8 -20.89 407.51 -17 399 C-16.46 397.75 -15.93 396.49 -15.4 395.24 C-14.41 392.88 -13.38 390.55 -12.33 388.22 C-5.48 371.65 -5.28 349.4 -11.44 332.63 C-13.35 328.18 -15.35 323.79 -17.47 319.44 C-20.35 313.48 -22.35 307.4 -24 301 C-24.18 300.34 -24.36 299.67 -24.54 298.99 C-26.01 293.09 -26.3 287.5 -26.25 281.44 C-26.26 280.54 -26.27 279.65 -26.27 278.73 C-26.26 273.15 -25.57 268.35 -24 263 C-24.66 263 -25.32 263 -26 263 C-26.39 264.28 -26.39 264.28 -26.79 265.59 C-28.05 269.13 -29.62 272.29 -31.38 275.62 C-40.88 294.1 -42 312.93 -38.5 333.25 C-35 353.83 -36.69 371.99 -48.85 389.69 C-53.47 395.71 -59.1 402.55 -66 406 C-66.4 412.3 -64.94 417.56 -63.12 423.56 C-62.86 424.48 -62.59 425.4 -62.31 426.35 C-60.96 430.93 -59.55 435.48 -58 440 C-60.52 440.82 -63.04 441.63 -65.56 442.44 C-66.62 442.78 -66.62 442.78 -67.7 443.13 C-72.14 444.55 -76.37 445.47 -81 446 C-90.89 414.11 -95.28 374.18 -90 341 C-89.79 337.79 -89.68 334.59 -89.56 331.38 C-89.22 323.45 -88.47 315.8 -87 308 C-87.66 308 -88.32 308 -89 308 C-89.2 308.65 -89.4 309.31 -89.61 309.98 C-91.56 314.21 -94.33 317.6 -97.19 321.25 C-98.07 322.39 -98.07 322.39 -98.98 323.55 C-100.14 325.05 -101.3 326.54 -102.46 328.03 C-104.25 330.32 -106 332.63 -107.75 334.94 C-110.93 339.02 -114.39 342.84 -117.89 346.66 C-119.62 348.58 -121.26 350.54 -122.88 352.56 C-140.14 372.83 -168.49 386.69 -194.85 388.82 C-200.42 389.14 -206 389.19 -211.58 389.19 C-213.63 389.19 -215.68 389.21 -217.73 389.22 C-224.77 389.25 -231.19 388.9 -238 387 C-237.97 387.92 -237.95 388.84 -237.92 389.79 C-237.16 420.79 -239.54 444.1 -261 468 C-261.68 468.78 -262.37 469.56 -263.07 470.36 C-269.2 476.93 -276.29 481.52 -284 486 C-285.49 486.87 -285.49 486.87 -287 487.76 C-301.83 495.79 -322.18 499.5 -339 498 C-339.99 497.67 -340.98 497.34 -342 497 C-340.51 491.99 -338.37 487.39 -336.12 482.68 C-332.89 474.94 -332.55 465.04 -335.38 457.12 C-337.75 451.9 -341.05 447.26 -344.28 442.54 C-347.68 437.56 -350.67 432.58 -353 427 C-353.32 426.25 -353.63 425.5 -353.96 424.73 C-358.76 411.46 -355.74 397.67 -352.12 384.56 C-351.75 383.17 -351.39 381.78 -351.02 380.38 C-350.32 377.73 -349.62 375.08 -348.91 372.43 C-348.46 370.73 -348.46 370.73 -348 369 C-347.78 368.19 -347.56 367.38 -347.34 366.54 C-345.61 359.61 -345.32 352.54 -344.88 345.44 C-344.75 343.5 -344.75 343.5 -344.61 341.51 C-344.4 338.34 -344.2 335.17 -344 332 C-345.09 332.04 -346.19 332.08 -347.32 332.12 C-351 332 -351 332 -353.94 330.12 C-356.43 326.35 -356.79 324.01 -356.54 319.55 C-354.77 311.15 -346.3 305.16 -340 300 C-339.39 299.48 -338.78 298.97 -338.15 298.44 C-335.72 296.69 -333.72 295.92 -330.73 296.26 C-325.31 297.74 -320.24 300.16 -315.17 302.55 C-311.4 304.27 -307.58 305.82 -303.75 307.38 C-298.2 309.63 -292.73 312 -287.31 314.56 C-286.07 315.15 -284.82 315.73 -283.58 316.32 C-281.32 317.38 -279.05 318.45 -276.8 319.53 C-269.3 322.94 -261.7 325.43 -253.81 327.75 C-252.81 328.04 -251.82 328.34 -250.79 328.64 C-240.21 331.66 -230.21 333.37 -219.19 333.31 C-218.14 333.31 -217.08 333.3 -216 333.3 C-190.36 332.9 -170.52 321.02 -151.05 305.43 C-141.44 297.78 -141.44 297.78 -135.69 297.5 C-132 298 -132 298 -130.28 299.28 C-128.69 301.41 -128.6 302.37 -128.81 305 C-130.28 314.6 -138.12 321.77 -145.55 327.35 C-148.9 329.61 -152.26 331.45 -156 333 C-156.91 333.39 -157.81 333.78 -158.75 334.19 C-165.85 335.96 -173.07 336.05 -180.35 335.91 C-187.17 335.79 -193.06 336.06 -199.61 338.25 C-225.64 346.44 -257.12 337.14 -280.55 325.19 C-289.27 320.75 -296.77 320.46 -306.45 320.33 C-314.92 320.18 -322.64 318.95 -330.84 316.94 C-335.16 315.9 -339.56 315.13 -344 315 C-345.52 316.52 -345.35 317.88 -345.5 320 C-345.41 326.22 -342.23 329.72 -338 334 C-328.75 342.93 -315.44 349.1 -303 352 C-302.29 352.19 -301.58 352.38 -300.85 352.58 C-278.63 358.19 -245.34 357.29 -223.81 348.73 C-218.13 347.64 -213.49 349.26 -208 350.81 C-187.05 356.51 -167.43 357.34 -147.86 346.75 C-116.26 327.44 -103.53 297.36 -92.92 263.41 C-85.28 239.12 -74.19 217.26 -61.35 195.33 C-54.74 183.92 -49.02 172.18 -44 160 C-43.7 159.29 -43.41 158.59 -43.1 157.86 C-35.15 138.8 -30.85 119.43 -28 99 C-27.84 97.87 -27.84 97.87 -27.68 96.71 C-26.65 88.04 -26.72 79.28 -26.69 70.56 C-26.68 69.71 -26.68 68.85 -26.68 67.96 C-26.65 53.49 -27.86 39.73 -30.54 25.48 C-31.12 22.33 -31.58 19.18 -32 16 C-31.34 16 -30.68 16 -30 16 C-25.63 28.87 -22.37 41.62 -20 55 C-19.78 56.17 -19.57 57.34 -19.35 58.54 C-12.66 96.33 -17.53 137.28 -31.24 172.99 C-32.86 177.27 -34.32 181.62 -35.82 185.94 C-38.34 193.13 -41.2 200.18 -44.23 207.17 C-56.74 236.13 -65.97 265.67 -70 297 C-70.14 298.09 -70.14 298.09 -70.29 299.21 C-72.09 313.51 -72.34 327.74 -72.32 342.14 C-72.31 345.93 -72.34 349.72 -72.36 353.51 C-72.4 367.31 -71.61 380.49 -69.28 394.09 C-68.94 396.41 -68.89 398.66 -69 401 C-56.7 391.06 -47.55 377.88 -45 362 C-43.97 351.28 -45.82 341.39 -48.03 330.95 C-53.35 305.17 -46.53 280.69 -32.39 258.89 C-28.27 252.74 -23.92 246.87 -19.25 241.12 C-11.19 231 -5.24 219.29 1 208 C1.57 206.98 2.13 205.96 2.72 204.91 C10.01 191.65 16.08 178.3 21 164 C21.37 162.95 21.37 162.95 21.75 161.87 C24.58 153.84 26.61 145.74 28.25 137.38 C28.41 136.55 28.58 135.73 28.75 134.88 C32.81 112.81 33.25 87.89 28 66 C27.83 65.28 27.67 64.56 27.5 63.81 C22.61 43.07 13.66 21.89 1 4.66 C0 3 0 3 0 0 Z " fill="#BB5832" transform="translate(482,169)"/>
    <path d="M0 0 C0 0.66 0 1.32 0 2 C-1.15 2.28 -2.3 2.56 -3.49 2.85 C-30.25 9.52 -55.86 19.86 -77 38 C-77.82 38.7 -78.64 39.4 -79.49 40.12 C-90.98 50.16 -99.71 61.3 -108 74 C-108.58 74.86 -109.15 75.72 -109.75 76.61 C-123.19 97.71 -129.32 122.86 -134.5 147 C-138.76 166.86 -143.85 186 -152.38 204.5 C-153.32 206.6 -154.26 208.7 -155.21 210.8 C-155.67 211.83 -156.14 212.86 -156.62 213.92 C-158.81 218.8 -160.94 223.71 -163.06 228.62 C-163.43 229.47 -163.8 230.32 -164.18 231.19 C-168.76 241.82 -171.49 252.89 -167.56 264.25 C-164.83 270.11 -160.46 274.41 -156 279 C-154.15 280.99 -152.33 282.99 -150.5 285 C-147.89 287.86 -145.27 290.71 -142.62 293.53 C-114.4 323.86 -102.45 364.01 -103.81 404.81 C-104.54 417.01 -109.43 430.45 -117.41 439.84 C-124.81 446.02 -139.93 443.53 -149 443 C-161.91 441.56 -176.36 437.82 -188 432 C-188 431.34 -188 430.68 -188 430 C-188.6 429.74 -189.21 429.48 -189.83 429.21 C-192.19 427.89 -193.19 426.77 -194.73 424.58 C-195.47 423.55 -195.47 423.55 -196.21 422.49 C-196.97 421.38 -196.97 421.38 -197.75 420.25 C-198.55 419.1 -198.55 419.1 -199.36 417.92 C-208.63 404.34 -224.82 380.22 -222.75 362.95 C-221.84 360.58 -220.63 359.26 -218.88 357.44 C-214.56 352.69 -211.32 347.47 -208 342 C-207.45 341.14 -206.9 340.28 -206.33 339.39 C-201.37 331.5 -197.52 323.54 -199 314 C-201.78 304.77 -209.79 297.9 -218.02 293.41 C-229.38 288.04 -240.89 287.38 -253.24 287.53 C-255.83 287.56 -258.41 287.55 -260.99 287.54 C-271.71 287.55 -281.12 288.05 -290.38 294.06 C-293.2 295.87 -295.97 297.55 -299 299 C-297.04 286.16 -277.19 271.1 -268.31 262.19 C-267.52 261.39 -266.72 260.59 -265.9 259.76 C-261.68 255.55 -257.38 251.53 -252.86 247.64 C-249.94 245.06 -247.22 242.29 -244.5 239.5 C-240.51 235.46 -236.48 231.61 -232.16 227.94 C-229.15 225.24 -226.34 222.37 -223.5 219.5 C-216.79 212.71 -216.79 212.71 -213.12 209.62 C-181.91 182.84 -172.59 152.83 -165.47 113.28 C-160.64 86.62 -153.52 62.18 -136 41 C-135.32 40.15 -134.63 39.3 -133.93 38.43 C-119.05 20.89 -97.46 8.8 -76.17 0.83 C-74.19 0.07 -72.25 -0.75 -70.31 -1.6 C-51.82 -8.76 -17.96 -8.98 0 0 Z " fill="#FEFEFC" transform="translate(400,60)"/>
    <path d="M0 0 C0 0.66 0 1.32 0 2 C-1.73 2.68 -3.45 3.37 -5.18 4.05 C-7.05 4.89 -7.05 4.89 -8.28 6.38 C-10.88 8.82 -14.05 10.07 -17.25 11.56 C-47.17 26.12 -68.34 48.69 -80 80 C-85.03 94.85 -87.69 110.16 -90.47 125.56 C-97.93 166.51 -113.49 193.1 -145.16 220.37 C-148.08 222.95 -150.78 225.72 -153.5 228.5 C-157.49 232.54 -161.52 236.39 -165.84 240.06 C-169.45 243.3 -172.8 246.79 -176.21 250.23 C-179.75 253.8 -183.38 257.19 -187.22 260.43 C-189.8 262.7 -192.13 265.2 -194.46 267.71 C-196 269 -196 269 -199 269 C-200.19 258.55 -200.22 248.1 -200.24 237.59 C-200.25 234.6 -200.28 231.61 -200.31 228.61 C-200.4 211.85 -198.76 195.46 -194.62 179.19 C-194.41 178.33 -194.2 177.47 -193.98 176.58 C-191.98 168.61 -189.61 160.79 -187 153 C-186.63 151.87 -186.27 150.74 -185.89 149.57 C-177.21 123.82 -162.65 99.74 -144 80 C-142.79 78.59 -141.58 77.17 -140.38 75.75 C-137.72 72.7 -134.92 70.06 -131.77 67.52 C-127.87 64.18 -124.5 60.48 -121.26 56.5 C-93.82 22.85 -43.9 -1.61 0 0 Z " fill="#F98B51" transform="translate(324,58)"/>
    <path d="M0 0 C0.66 0 1.32 0 2 0 C1.94 0.71 1.88 1.41 1.82 2.14 C1.17 10.07 0.73 17.99 0.39 25.93 C0.23 29.43 0.03 32.81 -0.52 36.27 C-4.18 64.47 -2.3 103.33 7.12 130.2 C8.09 133.28 8.06 135.79 8 139 C-6.04 142.39 -20 145.36 -34.31 147.31 C-36.05 147.55 -36.05 147.55 -37.82 147.79 C-52.2 149.67 -66.4 150.14 -80.88 150.06 C-82.55 150.06 -84.22 150.05 -85.89 150.05 C-89.92 150.04 -93.96 150.02 -98 150 C-98.82 151.58 -99.63 153.16 -100.44 154.75 C-100.89 155.63 -101.34 156.51 -101.81 157.42 C-105.95 166.39 -105.11 179.54 -102.17 188.81 C-100.47 192 -98.35 193.22 -95.2 194.84 C-90 197.59 -85.94 201.33 -83.06 206.44 C-80.9 213.7 -80.26 219.84 -83 227 C-86.5 233.13 -90.76 237.76 -97.7 239.79 C-105.66 241.49 -112.03 241.08 -119.04 236.74 C-124.98 232.13 -127.85 226.44 -128.94 219.06 C-129.37 211.79 -127.37 206.33 -122.81 200.69 C-119.29 196.92 -115.72 194.99 -111 193 C-111.43 191.3 -111.43 191.3 -111.88 189.56 C-112.25 188.04 -112.63 186.52 -113 185 C-113.19 184.26 -113.38 183.51 -113.58 182.75 C-116.56 170.5 -114.56 159.2 -109 148 C-110.19 147.78 -111.37 147.56 -112.59 147.34 C-144.58 141.18 -144.58 141.18 -152 132 C-153.26 127.82 -152.7 124.98 -151.61 120.8 C-149.64 112.24 -149.44 103.88 -149.31 95.12 C-149.28 93.55 -149.24 91.98 -149.21 90.4 C-149.13 86.6 -149.06 82.8 -149 79 C-147.83 79.16 -146.66 79.32 -145.46 79.49 C-139.21 80.18 -132.96 80.15 -126.68 80.13 C-124.64 80.13 -122.59 80.13 -120.55 80.14 C-89.96 80.16 -65.42 70.73 -42 51 C-41.24 50.37 -40.48 49.75 -39.69 49.1 C-34.63 44.8 -30.44 40.12 -26.34 34.91 C-24.49 32.61 -22.6 30.42 -20.64 28.23 C-16.9 23.98 -13.59 19.49 -10.31 14.88 C-9.76 14.1 -9.2 13.33 -8.63 12.54 C-6.25 9.22 -3.92 5.89 -1.73 2.45 C-1.16 1.64 -0.59 0.83 0 0 Z " fill="#F98B50" transform="translate(393,477)"/>
    <path d="M0 0 C0.82 -0.01 1.64 -0.01 2.48 -0.02 C4.21 -0.03 5.93 -0.03 7.66 -0.03 C10.25 -0.04 12.83 -0.08 15.42 -0.11 C32.95 -0.23 47.43 2.91 60.65 15.27 C65.15 20.07 68.3 24.84 68.78 31.52 C68.07 44.05 60.29 54.52 53.21 64.34 C52.59 65.22 51.97 66.1 51.33 67 C42.54 78.9 31.12 85.66 17.96 91.84 C17.2 92.21 16.43 92.59 15.64 92.97 C14.89 93.31 14.15 93.65 13.39 93.99 C12.73 94.3 12.07 94.61 11.39 94.92 C4.99 96.14 -2.65 90.55 -8.16 87.71 C-9.16 87.21 -10.17 86.72 -11.2 86.21 C-19.32 82.03 -26.73 76.91 -30.6 68.34 C-30.98 67.5 -31.37 66.65 -31.77 65.79 C-32.95 62.94 -34.01 60.05 -35.04 57.14 C-36.22 54.29 -38.07 51.88 -39.79 49.34 C-42.97 41.33 -43.16 32.1 -40.22 23.96 C-35.63 14.13 -26.73 6.48 -16.79 2.34 C-11.07 0.67 -5.94 0.02 0 0 Z " fill="#252328" transform="translate(133.78515625,346.6640625)"/>
    <path d="M0 0 C0.66 0 1.32 0 2 0 C1.76 1.67 1.76 1.67 1.52 3.38 C-1.48 27.6 4.67 46.67 14.56 68.43 C18.15 77.32 19.46 84.89 19.31 94.5 C19.32 95.56 19.32 96.63 19.32 97.72 C19.23 112.09 14.78 124.25 9.52 137.43 C2.87 154.26 1.9 175.05 9 192 C9.54 193.38 9.54 193.38 10.1 194.78 C11.29 197.59 12.61 200.29 14 203 C14.83 204.65 14.83 204.65 15.68 206.34 C23.62 221.52 35.47 233.53 51 241 C51 241.66 51 242.32 51 243 C31.41 239.91 13.19 231.71 -2 219 C-2.76 218.38 -2.76 218.38 -3.53 217.74 C-20.87 203.31 -31.88 182.49 -38 161 C-38.32 159.97 -38.63 158.94 -38.96 157.88 C-42.04 147.49 -42.04 147.49 -41 143 C-38.97 141.05 -36.81 139.49 -34.51 137.87 C-22.37 128.83 -14.76 113.65 -12 99 C-11.71 96.08 -11.67 93.19 -11.69 90.25 C-11.69 89.43 -11.69 88.61 -11.69 87.76 C-11.78 81.81 -12.49 76.11 -13.5 70.25 C-14.77 62.79 -15.33 55.51 -15.38 47.94 C-15.39 47.01 -15.4 46.08 -15.42 45.13 C-15.31 29.14 -7.96 13.57 0 0 Z " fill="#F98B50" transform="translate(456,432)"/>
    <path d="M0 0 C1 3 1 3 0.01 5.01 C-0.5 5.78 -1.01 6.55 -1.53 7.34 C-5.39 13.49 -8.43 19.93 -11.5 26.5 C-15.29 34.6 -19.21 42.44 -24 50 C-22.78 49.5 -21.57 49.01 -20.31 48.5 C-13.08 46.12 -4.66 45.41 2.44 48.56 C8.95 52.46 12.41 57.99 15 65 C16.67 75.46 15.97 85.62 14 96 C13.8 97.12 13.6 98.24 13.39 99.39 C11.43 108.27 7.82 116.18 3.94 124.38 C3.41 125.5 2.88 126.63 2.33 127.78 C1.82 128.83 1.3 129.88 0.78 130.96 C0.08 132.38 0.08 132.38 -0.62 133.83 C-2 136 -2 136 -5 137 C-5.59 138.95 -5.59 138.95 -6 141 C-8.83 143.83 -10.8 143.33 -14.75 143.38 C-20.34 143.28 -23.89 143.11 -28 139 C-31.27 135.11 -32.46 132.07 -32.82 127.12 C-33.4 120.13 -35.8 114.82 -38.82 108.54 C-40.18 104.45 -40.07 102.15 -39 98 C-37.37 95.02 -35.21 92.57 -33 90 C-32.2 89.05 -31.39 88.1 -30.56 87.12 C-26.08 83.41 -21.68 82.78 -16 83 C-10.62 83.65 -7.6 86.1 -4 90 C-4.54 81.77 -7.76 74.68 -13.88 69.06 C-20.29 63.96 -27.08 62.35 -35 61 C-35.28 61.71 -35.56 62.41 -35.84 63.14 C-36.61 65.04 -37.4 66.92 -38.22 68.8 C-44.38 83.01 -45.46 95.92 -42.52 111.13 C-41.67 115.85 -41.2 120.61 -40.69 125.38 C-39.43 136.51 -37.63 147.5 -35.63 158.52 C-35.42 159.68 -35.21 160.85 -34.99 162.05 C-34.8 163.08 -34.61 164.11 -34.41 165.17 C-33.41 172.08 -33.41 172.08 -35.07 174.65 C-35.56 175.12 -36.05 175.6 -36.56 176.09 C-37.11 176.62 -37.65 177.16 -38.22 177.71 C-39.1 178.53 -39.1 178.53 -40 179.38 C-40.6 179.95 -41.19 180.53 -41.8 181.12 C-45.51 184.67 -49.3 188.12 -53.22 191.43 C-55.8 193.7 -58.13 196.2 -60.46 198.71 C-62 200 -62 200 -65 200 C-66.19 189.55 -66.22 179.1 -66.24 168.59 C-66.25 165.6 -66.28 162.61 -66.31 159.61 C-66.4 142.85 -64.76 126.46 -60.62 110.19 C-60.41 109.33 -60.2 108.47 -59.98 107.58 C-57.98 99.61 -55.61 91.79 -53 84 C-52.63 82.87 -52.27 81.74 -51.89 80.57 C-43.21 54.83 -28.67 30.71 -10 11 C-8.16 8.91 -6.33 6.8 -4.51 4.69 C-3.06 3.07 -1.56 1.52 0 0 Z " fill="#DE7531" transform="translate(190,127)"/>
    <path d="M0 0 C1.94 2.73 3.27 5.73 4.69 8.75 C8.48 16.48 12.69 22.97 18.26 29.53 C19.12 30.75 19.12 30.75 20 32 C19.67 32.99 19.34 33.98 19 35 C16.48 36.24 14.08 37.24 11.44 38.19 C10.62 38.49 9.79 38.78 8.95 39.09 C-17.35 48.21 -45.33 53.51 -73 56 C-74.15 56.11 -75.31 56.22 -76.5 56.34 C-124.83 60.34 -124.83 60.34 -135 54 C-139.07 44.09 -138.13 32.01 -134.17 22.23 C-131.91 17.92 -131.91 17.92 -130 16 C-126.85 15.59 -126.85 15.59 -122.92 15.71 C-121.45 15.74 -119.98 15.77 -118.51 15.8 C-117.35 15.84 -117.35 15.84 -116.16 15.87 C-86.11 16.7 -53.48 14.82 -24.9 4.66 C-22.24 3.74 -19.55 3.08 -16.81 2.44 C-13.62 1.67 -10.65 0.87 -7.56 -0.25 C-4.33 -1.2 -3.14 -1.3 0 0 Z " fill="#2C5176" transform="translate(425,610)"/>
    <path d="M0 0 C1 3 1 3 0.01 5 C-0.5 5.77 -1.01 6.55 -1.53 7.34 C-6.09 14.59 -9.54 22.34 -13.14 30.1 C-17.25 38.8 -21.45 46.78 -28.38 53.56 C-39.95 66.13 -44.35 82.1 -44.3 98.85 C-44.11 103.02 -43.3 107.03 -42.51 111.13 C-41.67 115.85 -41.2 120.61 -40.69 125.38 C-39.43 136.51 -37.63 147.5 -35.63 158.52 C-35.42 159.68 -35.21 160.85 -34.99 162.05 C-34.8 163.08 -34.61 164.11 -34.41 165.17 C-33.41 172.08 -33.41 172.08 -35.07 174.65 C-35.56 175.12 -36.05 175.6 -36.56 176.09 C-37.11 176.62 -37.65 177.16 -38.22 177.71 C-39.1 178.53 -39.1 178.53 -40 179.38 C-40.6 179.95 -41.19 180.53 -41.8 181.12 C-45.51 184.67 -49.3 188.12 -53.22 191.43 C-55.8 193.7 -58.13 196.2 -60.46 198.71 C-62 200 -62 200 -65 200 C-66.19 189.55 -66.22 179.1 -66.24 168.59 C-66.25 165.6 -66.28 162.61 -66.31 159.61 C-66.4 142.85 -64.76 126.46 -60.62 110.19 C-60.41 109.33 -60.2 108.47 -59.98 107.58 C-57.98 99.61 -55.61 91.79 -53 84 C-52.63 82.87 -52.27 81.74 -51.89 80.57 C-43.21 54.83 -28.67 30.71 -10 11 C-8.16 8.91 -6.33 6.8 -4.51 4.69 C-3.06 3.07 -1.56 1.52 0 0 Z " fill="#BB5832" transform="translate(190,127)"/>
    <path d="M0 0 C0.43 0.32 0.86 0.63 1.3 0.96 C6.85 4.86 12.7 8.08 18.69 11.25 C19.51 11.69 20.33 12.12 21.17 12.57 C23.43 13.75 25.71 14.88 28 16 C28.96 16.52 29.92 17.04 30.91 17.57 C36.08 18.29 40.1 15.85 44.69 13.62 C45.67 13.17 46.64 12.71 47.65 12.24 C54.71 8.85 61.03 5.11 67 0 C69.16 2.16 69.48 3.13 70.26 6.01 C70.6 7.23 70.6 7.23 70.95 8.47 C71.19 9.35 71.44 10.22 71.69 11.12 C77.66 31.66 87.67 52.67 103 68 C98.19 67.43 94.52 66.01 90.19 63.88 C84.61 61.18 78.99 58.7 73.25 56.38 C68.52 54.46 63.82 52.51 59.19 50.38 C57.92 49.8 57.92 49.8 56.62 49.21 C54.7 48.32 52.79 47.42 50.88 46.51 C49.82 46.03 48.77 45.56 47.69 45.06 C46.74 44.62 45.8 44.18 44.82 43.72 C41.14 42.78 39.43 43.43 36 45 C29.76 49.14 24.63 54.15 20 60 C5.85 43.67 1.29 21.04 0 0 Z " fill="#DC7B49" transform="translate(109,423)"/>
    <path d="M0 0 C4.55 0.61 8.96 1.41 13.41 2.5 C20.76 4.3 27.6 5.19 35.18 5.17 C49.36 5.16 59.87 8.82 72.59 14.86 C90.69 23.3 109.44 25.76 129.13 27.05 C128.4 30.85 128.4 30.85 126 32.61 C111.03 39.8 93.6 41.63 77.13 42.05 C75.87 42.09 74.6 42.13 73.3 42.17 C46.77 42.61 22.27 37.43 2.19 19.05 C-1.93 15.04 -4.07 12.08 -4.24 6.3 C-4.18 2.97 -4.04 0.1 0 0 Z " fill="#F6D9BD" transform="translate(139.865234375,482.953125)"/>
    <path d="M0 0 C12.91 11.34 20.18 30.26 22 47 C22.96 66.1 20.65 85.67 15.68 104.11 C9.66 129.56 17.1 149.29 29.44 171.21 C45.46 199.81 51.54 229.6 44 262 C43.72 263.28 43.44 264.57 43.16 265.89 C39.99 279.16 34.63 291.98 24 301 C21.73 301.76 21.73 301.76 20 302 C20.53 301.07 20.53 301.07 21.07 300.11 C34.52 274.93 41.63 241.36 34.38 213.25 C33.63 210.82 32.84 208.4 32 206 C31.57 204.68 31.14 203.36 30.71 202.05 C27.57 192.76 23.13 184.5 18.2 176.06 C12.17 165.67 7.01 155.7 4 144 C3.47 142.39 3.47 142.39 2.92 140.74 C1.79 136.16 1.66 131.95 1.69 127.25 C1.69 125.88 1.69 125.88 1.7 124.49 C1.85 114.4 2.73 103.74 5.97 94.11 C7.43 89.69 8.22 85.19 9.06 80.62 C9.24 79.72 9.41 78.81 9.59 77.88 C14.32 52.71 12.93 28.51 1.19 5.44 C0 3 0 3 0 0 Z " fill="#BB5A32" transform="translate(605,334)"/>
    <path d="M0 0 C3.76 1.72 7.58 3.27 11.42 4.82 C16.97 7.08 22.44 9.44 27.86 12.01 C29.1 12.59 30.34 13.18 31.59 13.76 C33.85 14.83 36.11 15.9 38.37 16.97 C45.86 20.38 53.46 22.88 61.36 25.2 C62.35 25.49 63.35 25.78 64.38 26.09 C74.96 29.1 84.96 30.82 95.98 30.76 C97.56 30.75 97.56 30.75 99.17 30.74 C124.81 30.34 144.65 18.47 164.11 2.88 C173.73 -4.77 173.73 -4.77 179.48 -5.05 C183.17 -4.55 183.17 -4.55 184.89 -3.27 C186.48 -1.14 186.56 -0.19 186.36 2.45 C184.89 12.05 177.05 19.22 169.62 24.79 C166.27 27.05 162.9 28.9 159.17 30.45 C158.26 30.84 157.35 31.23 156.42 31.63 C149.32 33.41 142.09 33.49 134.81 33.36 C128 33.24 122.11 33.5 115.56 35.69 C89.52 43.89 58.05 34.58 34.61 22.63 C25.89 18.2 18.4 17.91 8.72 17.78 C0.25 17.63 -7.47 16.4 -15.68 14.38 C-19.99 13.34 -24.39 12.57 -28.83 12.45 C-30.41 14.02 -30 15.64 -30.02 17.82 C-30.04 19.01 -30.04 19.01 -30.06 20.22 C-29.98 22.73 -29.98 22.73 -27.83 25.45 C-28.21 27.63 -28.21 27.63 -28.83 29.45 C-33 29.85 -35.19 29.85 -38.77 27.57 C-41.26 23.79 -41.62 21.45 -41.37 16.99 C-39.6 8.6 -31.13 2.6 -24.83 -2.55 C-24.22 -3.07 -23.61 -3.59 -22.98 -4.12 C-15.75 -9.31 -6.98 -3.29 0 0 Z " fill="#28262A" transform="translate(166.83203125,471.5546875)"/>
    <path d="M0 0 C8.36 4.97 16.06 11.31 22.57 18.53 C23.51 19.57 23.51 19.57 24.47 20.63 C27.04 23.52 29.42 26.31 31.57 29.53 C30.33 29.77 30.33 29.77 29.07 30.03 C25.6 31.51 24.34 32.6 21.82 35.28 C13.91 43.55 4.19 48.17 -7.28 48.71 C-11.39 48.64 -15.23 47.84 -19.18 46.78 C-19.87 46.6 -20.56 46.42 -21.27 46.24 C-26.53 44.85 -31.65 43.13 -36.79 41.34 C-40.35 40.24 -43.72 39.81 -47.43 39.53 C-48.39 36.96 -48.5 35.75 -47.64 33.1 C-47.22 32.22 -46.8 31.33 -46.37 30.42 C-45.9 29.44 -45.43 28.45 -44.95 27.44 C-44.45 26.42 -43.95 25.39 -43.43 24.34 C-42.72 22.83 -42.72 22.83 -42 21.3 C-37.68 12.35 -32.54 4.43 -24.43 -1.47 C-16.72 -4.04 -7.35 -3.41 0 0 Z " fill="#252328" transform="translate(354.4296875,223.47265625)"/>
    <path d="M0 0 C0.66 0.33 1.32 0.66 2 1 C1.24 5.4 -0.07 9.58 -1.44 13.81 C-2.1 15.87 -2.75 17.92 -3.38 19.98 C-3.95 21.83 -4.54 23.67 -5.14 25.52 C-6.74 32.16 -6.39 39.14 -6.38 45.94 C-6.38 46.68 -6.38 47.41 -6.38 48.17 C-6.35 59.29 -5.57 69.39 -2 80 C-1.68 81.08 -1.35 82.17 -1.02 83.29 C0.76 89.04 3.03 94.45 5.58 99.9 C10.66 110.99 15.11 122.12 18 134 C18.3 135.11 18.6 136.22 18.91 137.37 C23.74 158.17 22.58 180.77 16 201 C15.78 201.71 15.55 202.43 15.32 203.16 C9.44 221.41 -0.42 238.33 -12.69 253 C-13.14 253.54 -13.59 254.08 -14.06 254.64 C-18.79 260.15 -22.77 263.55 -30 265 C-32.21 264.54 -32.21 264.54 -34 264 C-33.47 263.44 -32.93 262.88 -32.38 262.3 C-4.99 232.82 10.54 195.62 9.19 155.28 C8.33 140.53 3.17 126.71 -2 113 C-2.28 112.27 -2.55 111.53 -2.84 110.78 C-3.37 109.37 -3.9 107.97 -4.43 106.57 C-10.89 89.47 -16.34 72.3 -16.38 53.88 C-16.38 53.02 -16.38 52.17 -16.38 51.29 C-16.28 45.64 -15.43 40.46 -14 35 C-13.83 34.33 -13.66 33.65 -13.48 32.96 C-6.55 6.55 -6.55 6.55 0 0 Z " fill="#BB5A32" transform="translate(586,410)"/>
    <path d="M0 0 C-0.42 0.82 -0.84 1.64 -1.28 2.48 C-1.83 3.56 -2.37 4.64 -2.94 5.75 C-3.76 7.35 -3.76 7.35 -4.59 8.98 C-8.88 18.16 -8.2 31.26 -5.17 40.81 C-3.47 44 -1.35 45.22 1.8 46.84 C7 49.59 11.06 53.33 13.94 58.44 C16.1 65.7 16.74 71.84 14 79 C10.5 85.13 6.24 89.76 -0.7 91.79 C-8.66 93.49 -15.03 93.08 -22.04 88.74 C-27.98 84.13 -30.85 78.44 -31.94 71.06 C-32.37 63.79 -30.37 58.33 -25.81 52.69 C-22.29 48.92 -18.72 46.99 -14 45 C-14.29 43.87 -14.58 42.73 -14.88 41.56 C-15.25 40.04 -15.63 38.52 -16 37 C-16.19 36.26 -16.38 35.51 -16.58 34.75 C-19.25 23.76 -18.24 12.75 -13.2 2.56 C-9.56 -2.18 -5.21 -0.87 0 0 Z " fill="#DD7530" transform="translate(296,625)"/>
    <path d="M0 0 C4.53 2.33 8.25 5.11 12 8.54 C12.7 9.17 13.41 9.79 14.13 10.43 C19.68 15.65 24.16 21.52 28.58 27.7 C33.1 33.95 37.94 39.93 44.94 43.48 C46.1 44.08 46.1 44.08 47.28 44.7 C47.85 44.98 48.41 45.25 49 45.54 C49 46.2 49 46.86 49 47.54 C44.71 47.17 41.16 46.77 37.25 44.92 C33.85 43.48 33.26 43.27 30 44.54 C28.4 45.89 28.4 45.89 26.94 47.61 C17.14 57.74 5.85 64.58 -8.44 65.03 C-17.84 65.08 -26.43 64.06 -35.27 60.68 C-45.67 56.75 -56.33 58.39 -67 60.54 C-67.5 59.06 -67.5 59.06 -68 57.54 C-66.62 54.95 -65.19 52.52 -63.62 50.04 C-59.79 43.78 -56.42 37.47 -53.38 30.79 C-41.84 5.7 -41.84 5.7 -32.56 0.86 C-31.45 0.26 -31.45 0.26 -30.32 -0.34 C-19.99 -5.31 -10.46 -4.49 0 0 Z M-37.92 15.62 C-41.7 20.92 -44.36 26.78 -47.1 32.66 C-48.7 36.02 -50.5 39.27 -52.29 42.53 C-53.14 44.94 -52.85 46.17 -52 48.54 C-51.34 48.62 -50.69 48.69 -50.01 48.77 C-42.43 49.82 -35.5 51.88 -28.32 54.42 C-16.34 58.64 -6.83 58.22 5 53.54 C11.04 50.42 15.58 46.23 20.08 41.18 C22.36 39.23 24.06 38.89 27 38.54 C25.02 36.19 23.02 33.86 21 31.54 C20.2 30.61 19.4 29.68 18.57 28.72 C9.52 18.38 -1.18 7.57 -15.52 6.21 C-25.63 5.93 -31.32 7.9 -37.92 15.62 Z " fill="#B55A35" transform="translate(359,214.45703125)"/>
    <path d="M0 0 C19.48 9.11 35.02 33.23 42.53 52.88 C43.74 56.24 44.87 59.61 46 63 C46.34 63.82 46.68 64.64 47.04 65.48 C48.19 68.49 48.88 71.47 49.56 74.62 C49.81 75.75 50.06 76.88 50.32 78.04 C54.57 100.63 52.88 125.31 48.46 147.73 C46.96 155.64 46.69 163.38 46.74 171.4 C46.75 173.56 46.74 175.73 46.73 177.89 C46.71 188.25 47.27 198 51.62 207.56 C54 212.84 54 212.84 54 215 C51.6 214.62 50.32 214.35 48.66 212.54 C39.93 198.09 37.45 181.94 37.69 165.31 C37.7 163.96 37.7 162.61 37.71 161.26 C37.8 152.46 38.29 143.71 39 134.94 C42.73 88.75 35.7 47.9 6.48 10.89 C3.93 7.63 1.47 4.31 -1 1 C-0.67 0.67 -0.34 0.34 0 0 Z " fill="#BD5A31" transform="translate(519,177)"/>
    <path d="M0 0 C0.66 0 1.32 0 2 0 C6.34 5 8.53 10.21 10.15 16.54 C11.09 19.25 12.35 21.08 14.06 23.38 C17.09 27.66 17.85 31.23 18.52 36.38 C20.78 53.51 24.31 70.55 34.78 84.67 C36.33 87.64 35.89 88.83 35 92 C34.54 97.71 34.25 102.32 38 107 C29.01 106.66 21.27 102.85 15.12 96.25 C0.51 77.73 -2.2 49.96 -2.19 27.25 C-2.19 26.11 -2.19 24.97 -2.19 23.8 C-2.14 15.7 -1.62 7.95 0 0 Z " fill="#F0DCBF" transform="translate(92,394)"/>
    <path d="M0 0 C9.89 0.23 17.46 2.95 24.38 10.19 C29.2 16.04 32.33 22.32 32 30 C31.54 29.58 31.08 29.16 30.6 28.72 C25.29 24.26 20.97 22.57 14 23 C7.42 23.95 3.89 27.75 -0.34 32.65 C-2.98 36.38 -4.07 38.74 -3.82 43.38 C-2.95 47.22 -1.63 50.38 0.06 53.94 C3.4 61.21 3.4 61.21 3.12 65.38 C2.96 70.16 4.29 73.12 7 77 C10.95 81.15 14.68 81.34 20.19 81.56 C23.79 81.76 23.79 81.76 27 81 C28.88 78.66 28.88 78.66 30 76 C33.01 73.18 33.67 73 38 73 C37.85 77.88 35.35 80.04 32 83.2 C30.15 84.87 28.27 86.5 26.38 88.12 C22.54 91.41 19.03 94.96 15.5 98.56 C10.94 103.2 6.38 107.31 1 111 C-0.02 105.67 -1.02 100.34 -2 95 C-2.17 94.11 -2.33 93.21 -2.5 92.29 C-4.52 81.34 -6.31 70.45 -7.35 59.37 C-7.73 55.28 -8.26 51.33 -9.12 47.31 C-12.36 30.41 -9.11 14.6 0 0 Z " fill="#F88B50" transform="translate(155,188)"/>
    <path d="M0 0 C2.72 1.3 5.21 2.76 7.71 4.43 C11.83 7.02 15.94 8.66 20.56 10.12 C21.33 10.38 22.1 10.63 22.9 10.89 C30.16 13.19 37.49 14.74 45 16 C45 19.29 44.26 21.2 43.06 24.25 C39.23 34.57 39.77 44.26 41 55 C35.55 54.44 30.48 53.48 25.25 51.81 C24.56 51.59 23.87 51.38 23.16 51.15 C14.92 48.45 6.36 45.07 0 39 C-1.16 34.97 -1.13 31.01 -1.13 26.84 C-1.13 26.16 -1.13 25.49 -1.14 24.79 C-1.14 23.38 -1.13 21.96 -1.13 20.54 C-1.12 18.37 -1.13 16.21 -1.14 14.04 C-1.14 12.66 -1.13 11.28 -1.13 9.9 C-1.13 8.65 -1.13 7.4 -1.13 6.11 C-1 3 -1 3 0 0 Z " fill="#2D5277" transform="translate(239,608)"/>
    <path d="M0 0 C2.78 1.85 4.01 3.21 6 6 C6.33 8.52 6.33 8.52 6 11 C4.78 12.48 4.78 12.48 2.94 13.75 C2.21 14.25 1.49 14.75 0.74 15.27 C-3.27 17.8 -7.33 20.26 -11.42 22.67 C-15.02 24.79 -18.51 26.98 -21.94 29.38 C-27.96 33.44 -33.61 35.82 -41 35 C-44.59 33.55 -47.57 32.07 -50 29 C-51.86 23.41 -51.94 17.33 -49.56 11.88 C-45.19 4.32 -38.27 -0.79 -30.01 -3.38 C-19.72 -5.51 -9.57 -4.34 0 0 Z " fill="#DE7530" transform="translate(342,177)"/>
    <path d="M0 0 C0.66 0 1.32 0 2 0 C4.43 13.91 5.8 27.45 1 41 C0.6 42.17 0.2 43.34 -0.21 44.54 C-1.87 49.31 -3.56 54.01 -5.62 58.62 C-12.19 74.74 -12.25 94.79 -5.81 111 C-4.9 113.01 -3.96 115.01 -3 117 C-2.48 118.07 -1.97 119.15 -1.43 120.25 C2.51 128 7.2 134.54 13 141 C13.59 141.66 14.17 142.31 14.78 142.99 C18.76 147.2 23.21 150.36 28.06 153.52 C28.7 154.01 29.34 154.5 30 155 C30 155.66 30 156.32 30 157 C15.7 155.64 4.93 147.09 -4.06 136.31 C-10.74 127.66 -15.87 118.49 -19 108 C-19.36 106.82 -19.72 105.65 -20.09 104.43 C-21.42 98.94 -21.33 93.44 -21.31 87.81 C-21.33 86.77 -21.34 85.72 -21.36 84.64 C-21.37 71.75 -17.94 60.92 -12.56 49.31 C-11.6 47.21 -10.65 45.1 -9.69 42.99 C-9.23 41.98 -8.78 40.97 -8.31 39.94 C-2.4 26.67 -0.75 14.39 0 0 Z " fill="#BB5A32" transform="translate(103,508)"/>
    <path d="M0 0 C6.53 7.14 7.3 13.47 6.95 22.95 C6.58 29.34 6.02 35.28 3.12 41.06 C-0.51 43.86 -3.79 44.18 -8.31 43.94 C-13.97 42.95 -17.58 40.4 -21.07 35.89 C-23.09 32.72 -24.3 29.54 -25.31 25.94 C-25.52 25.21 -25.72 24.49 -25.93 23.75 C-29.12 11.09 -29.12 11.09 -26.03 5.7 C-19.24 -2.76 -9.62 -5.99 0 0 Z " fill="#262328" transform="translate(183.3125,221.0625)"/>
    <path d="M0 0 C1.2 0 2.4 0 3.64 0 C14.2 0.15 23.71 0.89 31.81 8.38 C32.12 11.12 32.12 11.12 31.81 13.38 C26.83 15.79 23.2 16.76 17.58 16.77 C16.91 16.78 16.23 16.78 15.54 16.79 C13.38 16.79 11.22 16.77 9.06 16.75 C8.33 16.75 7.59 16.74 6.84 16.74 C-22.37 16.58 -22.37 16.58 -30.19 11.38 C-29.24 7.6 -28.31 6.46 -25.06 4.19 C-17.31 -0.17 -8.63 -0.01 0 0 Z " fill="#655957" transform="translate(135.1875,355.625)"/>
    <path d="M0 0 C-4.22 2.81 -8.77 4.09 -13.56 5.69 C-14.53 6.02 -15.51 6.35 -16.51 6.7 C-17.43 7.01 -18.36 7.32 -19.32 7.64 C-20.17 7.92 -21.02 8.21 -21.89 8.5 C-24 9 -24 9 -26 8 C-21.38 5 -21.38 5 -18 5 C-18 4.34 -18 3.68 -18 3 C-61.47 9.07 -109.54 21.78 -137.79 58.51 C-139.44 60.71 -141.02 62.93 -142.59 65.19 C-147.19 70.56 -152.3 72.12 -159 74 C-161.78 75.2 -164.45 76.58 -167.12 78 C-167.86 78.39 -168.6 78.78 -169.36 79.18 C-175.52 82.54 -180.94 86.49 -186.36 90.93 C-188.55 92.65 -190.47 93.9 -193 95 C-193 95.66 -193 96.32 -193 97 C-194.47 98.38 -194.47 98.38 -196.5 100 C-204.05 106.44 -209.56 114.16 -214 123 C-213.26 122.56 -212.53 122.11 -211.77 121.65 C-210.79 121.09 -209.82 120.52 -208.81 119.94 C-207.85 119.37 -206.89 118.8 -205.89 118.21 C-202.67 116.86 -201.27 116.95 -198 118 C-198.62 121.26 -199.75 123.35 -201.7 126.02 C-202.24 126.79 -202.79 127.55 -203.36 128.35 C-204.23 129.57 -204.23 129.57 -205.12 130.81 C-210.8 138.93 -215.26 146.83 -219 156 C-219.45 157.05 -219.89 158.1 -220.35 159.18 C-225.28 171.3 -228.72 184.13 -231 197 C-231.33 197 -231.66 197 -232 197 C-231.53 189.58 -230.44 182.66 -228.44 175.5 C-228.17 174.55 -227.91 173.61 -227.64 172.63 C-221.84 152.58 -212.2 135.81 -200 119 C-206.95 122.3 -206.95 122.3 -213.5 126.31 C-216 128 -216 128 -218 128 C-212.94 108.09 -194.14 91.23 -177 81 C-168.49 76.15 -159.9 71.37 -150.67 68.06 C-146.05 66.26 -143.86 64.11 -141.06 59.94 C-140.23 58.77 -139.4 57.6 -138.55 56.45 C-137.93 55.58 -137.93 55.58 -137.28 54.69 C-122.86 35.72 -99.04 22.14 -77 14 C-76.26 13.72 -75.52 13.45 -74.75 13.16 C-50.82 4.35 -25.55 -0.74 0 0 Z " fill="#D89E6B" transform="translate(342,55)"/>
    <path d="M0 0 C3.43 2.77 5.88 5.36 6.88 9.77 C7 13.08 7 13.08 6.88 15.77 C6.3 15 5.72 14.24 5.12 13.45 C1.84 9.53 -0.29 7.71 -5.38 6.89 C-11.11 6.46 -15.43 7.64 -19.96 11.21 C-22.84 14.11 -24.52 16.63 -24.75 20.77 C-24.09 29.86 -21.64 39.47 -16.12 46.77 C-11.73 50.46 -7.8 51.91 -2.12 51.77 C0.34 51.3 2.5 50.61 4.88 49.77 C3.12 55.52 3.12 55.52 0.88 57.77 C-5.22 58.44 -11.11 58.67 -16.75 56.14 C-21.18 51.71 -23.49 48.12 -23.95 41.89 C-24.53 34.9 -26.92 29.59 -29.95 23.3 C-31.31 19.21 -31.19 16.91 -30.12 12.77 C-28.5 9.79 -26.34 7.33 -24.12 4.77 C-23.32 3.82 -22.52 2.87 -21.69 1.89 C-15.76 -3.03 -6.76 -3.93 0 0 Z " fill="#B05937" transform="translate(181.125,212.234375)"/>
    <path d="M0 0 C44.78 7.21 86.36 33.75 112.82 70.19 C113.25 70.79 113.68 71.38 114.12 72 C114.56 72.6 115 73.19 115.45 73.81 C117.94 77.28 119.76 80.64 121.5 84.56 C123.95 88.82 126.5 89.81 131.03 91.05 C132.6 91.44 134.18 91.81 135.76 92.18 C149.58 95.41 160.13 101.87 170 112 C171.24 113.23 171.24 113.23 172.5 114.49 C198 140.14 198 140.14 198 152 C194.22 151.34 190.78 150.28 187.19 148.94 C186.21 148.58 185.24 148.21 184.23 147.84 C183.49 147.56 182.76 147.29 182 147 C182.33 147.45 182.65 147.89 182.99 148.35 C197.56 168.37 197.56 168.37 201 177 C200.67 177.99 200.34 178.98 200 180 C197.1 175.22 194.22 170.45 191.62 165.5 C189.17 160.96 185.98 157.22 182.57 153.36 C180.76 150.64 180.67 149.2 181 146 C185.86 145.81 189.44 146.36 194 148 C185.43 127.33 167.09 108.15 147.18 98.15 C144.43 97.15 142.03 96.6 139.16 96.1 C124.12 93.23 124.12 93.23 119.07 86.3 C116.23 81.81 113.77 77.12 111.33 72.4 C108.65 67.57 104.88 63.9 101 60 C99.78 58.61 98.57 57.22 97.38 55.81 C72.13 26.99 36.6 10.94 0 2 C0 1.34 0 0.68 0 0 Z " fill="#D89E6B" transform="translate(400,60)"/>
    <path d="M0 0 C0.33 0 0.66 0 1 0 C1.59 27.26 -11.44 56.55 -28.21 77.61 C-30.16 79.95 -30.16 79.95 -31 83 C-22.13 78.14 -13.97 73.33 -8 65 C-6.52 65.5 -6.52 65.5 -5 66 C-5.95 67.98 -6.91 69.96 -7.88 71.94 C-8.41 73.04 -8.94 74.14 -9.49 75.28 C-11 78 -11 78 -13 79 C-12.67 78.22 -12.34 77.43 -12 76.62 C-10.88 74.16 -10.88 74.16 -11 72 C-11.42 72.41 -11.83 72.82 -12.26 73.25 C-16.59 77.31 -21.12 80.45 -26.25 83.38 C-26.85 83.72 -27.45 84.07 -28.07 84.42 C-30.99 86.05 -33.69 87.43 -37 88 C-37 83.81 -34.64 81.87 -32.06 78.81 C-26.02 71.37 -21.35 63.52 -17 55 C-16.68 54.36 -16.35 53.73 -16.02 53.07 C-7.43 36.01 -3.45 18.67 0 0 Z " fill="#D89E6B" transform="translate(109,252)"/>
    <path d="M0 0 C0.51 0.34 1.02 0.68 1.54 1.02 C2.23 1.47 2.92 1.92 3.62 2.38 C4.63 3.04 4.63 3.04 5.66 3.71 C13.87 8.24 23.6 8.36 32.57 6.1 C34.63 5.4 36.68 4.66 38.71 3.88 C41 3 41 3 43 3 C41.93 5.92 41.22 7.78 39 10 C39 9.34 39 8.68 39 8 C37.27 8.93 37.27 8.93 35.5 9.88 C27.29 13.92 19.65 15.24 10.76 12.25 C5.91 10.06 2.99 7.39 0 3 C0 2.01 0 1.02 0 0 Z " fill="#655A57" transform="translate(146,403)"/>
    <path d="M0 0 C3 1 3 1 5 4 C5.42 6.37 5.42 6.37 5 9 C2.99 11.57 2.99 11.57 0.31 14.12 C-0.56 14.97 -1.43 15.82 -2.32 16.7 C-4.8 18.83 -7.09 20.52 -10 22 C-12.31 21.69 -12.31 21.69 -14 21 C-12.21 20.02 -10.42 19.05 -8.63 18.07 C-6.83 17.09 -6.83 17.09 -6 15 C-8.64 14.67 -11.28 14.34 -14 14 C-13.33 9.81 -11.14 6.6 -9 3 C-6.29 4.61 -3.63 6.25 -1 8 C-0.67 5.36 -0.34 2.72 0 0 Z " fill="#665B58" transform="translate(371,244)"/>
    <path d="M0 0 C0 0.66 0 1.32 0 2 C-14.04 5.39 -28 8.36 -42.31 10.31 C-43.47 10.47 -44.63 10.63 -45.82 10.79 C-58.68 12.47 -71.41 13.16 -84.38 13.06 C-85.6 13.06 -86.82 13.05 -88.09 13.05 C-91.06 13.04 -94.03 13.02 -97 13 C-97 12.67 -97 12.34 -97 12 C-96.39 11.97 -95.78 11.95 -95.15 11.92 C-92.37 11.81 -89.59 11.69 -86.81 11.56 C-85.85 11.52 -84.89 11.48 -83.9 11.44 C-82.51 11.38 -82.51 11.38 -81.08 11.32 C-80.23 11.28 -79.37 11.24 -78.5 11.21 C-75.94 10.99 -73.52 10.51 -71 10 C-67.84 9.97 -64.7 10.06 -61.55 10.16 C-58.01 10 -54.96 9.38 -51.54 8.56 C-46.6 7.47 -41.57 6.85 -36.56 6.12 C-27.79 4.83 -19.14 3.33 -10.52 1.22 C-6.93 0.35 -3.69 -0.2 0 0 Z " fill="#BA996D" transform="translate(401,614)"/>
    <path d="M0 0 C2.72 2.72 2.92 5.68 3.69 9.31 C8.23 28.8 21.43 44.26 38.03 54.95 C41.92 57.15 45.67 59.05 50 60.19 C52.98 60.99 54.14 61.6 56 64 C50.59 63.51 46.46 62.08 41.69 59.44 C41.03 59.08 40.38 58.72 39.71 58.36 C33.97 55.14 28.88 51.42 24 47 C23.22 46.3 22.44 45.6 21.64 44.88 C10.51 34.37 0.62 18.02 -0.19 2.38 C-0.13 1.59 -0.06 0.81 0 0 Z " fill="#D89C69" transform="translate(62,597)"/>
    <path d="M0 0 C0.99 0.66 1.98 1.32 3 2 C3.37 5.42 3.64 7.9 1.88 10.94 C-0.89 12.5 -2.88 12.39 -6 12 C-7.88 10.88 -7.88 10.88 -9 9 C-9.39 5.85 -9.53 3.88 -7.88 1.12 C-5.15 -0.51 -3.12 -0.33 0 0 Z " fill="#E6DAC3" transform="translate(356,232)"/>
    <path d="M0 0 C2.48 0.99 2.48 0.99 5 2 C5 2.66 5 3.32 5 4 C5.83 4.37 5.83 4.37 6.67 4.74 C9.48 6.26 11.81 8.14 14.31 10.12 C25.85 18.95 38.07 24.16 52 28 C55.36 28.95 58.69 29.9 62 31 C62 31.66 62 32.32 62 33 C38.18 29.24 17.08 17.91 0 1 C0 0.67 0 0.34 0 0 Z " fill="#D89E6B" transform="translate(445,642)"/>
    <path d="M0 0 C1.68 2.53 2.52 4.22 3.45 7.03 C8.72 23.49 8.72 23.49 20 36 C20 34.35 20 32.7 20 31 C22.45 34.67 24 37.55 24 42 C13.74 37.31 8.15 26.68 4.23 16.59 C0 5.14 0 5.14 0 0 Z " fill="#D89E6B" transform="translate(656,448)"/>
    <path d="M0 0 C0.7 0.75 1.41 1.51 2.13 2.29 C12.44 12.03 27.66 14.74 41 18 C41 18.66 41 19.32 41 20 C26.73 18.38 10.44 14.44 0 4 C0 2.68 0 1.36 0 0 Z " fill="#D09968" transform="translate(240,604)"/>
    <path d="M0 0 C-0.15 4.97 -2.83 7.21 -6.21 10.45 C-9.42 13.23 -10.62 14 -15 14 C-15 13.01 -15 12.02 -15 11 C-17.31 10.67 -19.62 10.34 -22 10 C-22 9.67 -22 9.34 -22 9 C-21.24 8.99 -20.48 8.97 -19.7 8.96 C-16.72 8.81 -13.92 8.6 -11 8 C-8.88 5.75 -8.88 5.75 -8 3 C-5.36 -0.19 -4.06 0 0 0 Z " fill="#EC844A" transform="translate(193,261)"/>
    <path d="M0 0 C0.33 0 0.66 0 1 0 C0 19.32 -11.05 36.48 -23 51 C-23 46.82 -20.76 44.48 -18.44 41.19 C-10.86 30.12 -5.64 18.96 -2 6 C-1.34 4 -0.68 2 0 0 Z " fill="#D99F6B" transform="translate(675,561)"/>
    <path d="M0 0 C0.33 1.32 0.66 2.64 1 4 C2.65 4.33 4.3 4.66 6 5 C4.52 10 2.37 14.33 -0.12 18.88 C-0.5 19.56 -0.87 20.25 -1.25 20.96 C-2.16 22.64 -3.08 24.32 -4 26 C-5.29 22.14 -4.29 20.81 -3 17 C-2.52 14.24 -2.23 11.47 -1.94 8.69 C-1.13 1.13 -1.13 1.13 0 0 Z " fill="#D77B47" transform="translate(191,238)"/>
    <path d="M0 0 C0.63 0.3 1.26 0.6 1.91 0.91 C7.88 3.56 11.6 4.42 18 3 C17.69 4.88 17.69 4.88 17 7 C13.51 9.33 12.1 9.33 8 9 C5.62 8 5.62 8 4 7 C3.34 7.66 2.68 8.32 2 9 C1.34 6.03 0.68 3.06 0 0 Z " fill="#665B58" transform="translate(100,404)"/>
    <path d="M0 0 C2.38 0.69 2.38 0.69 3.38 1.69 C3.5 5.19 3.5 5.19 3.38 8.69 C2.38 9.69 2.38 9.69 0 9.94 C-2.62 9.69 -2.62 9.69 -4.44 8.5 C-6.04 6.05 -6.07 4.55 -5.62 1.69 C-2.62 -0.31 -2.62 -0.31 0 0 Z " fill="#DCD3C0" transform="translate(181.625,228.3125)"/>
    <path d="M0 0 C0.77 0.5 0.77 0.5 1.56 1 C4.78 2.32 7.56 2.13 11 2 C11 4.12 11 4.12 10 7 C7.5 9.25 4.8 11.14 2 13 C-0.29 4.57 -0.29 4.57 0 0 Z " fill="#ED854D" transform="translate(154,286)"/>
    <path d="M0 0 C3 1 3 1 5 4 C5.38 6.42 5.38 6.42 5 9 C3.25 11.24 3.25 11.24 1 13.31 C0.26 14.01 -0.49 14.71 -1.25 15.43 C-2.12 16.21 -2.12 16.21 -3 17 C-3.66 16.67 -4.32 16.34 -5 16 C-4.32 14.82 -4.32 14.82 -3.62 13.62 C-1.63 9.16 -0.81 4.8 0 0 Z " fill="#E1CFB6" transform="translate(371,244)"/>
    <path d="M0 0 C0 0.66 0 1.32 0 2 C-4.46 3 -8.92 4 -13.38 5 C-15.28 5.43 -15.28 5.43 -17.23 5.87 C-19.04 6.27 -19.04 6.27 -20.9 6.69 C-22.02 6.94 -23.14 7.19 -24.29 7.45 C-27 8 -27 8 -29 8 C-28.67 7.01 -28.34 6.02 -28 5 C-25.85 4.2 -25.85 4.2 -23.05 3.61 C-21.53 3.29 -21.53 3.29 -19.98 2.96 C-18.38 2.64 -18.38 2.64 -16.75 2.31 C-15.7 2.09 -14.65 1.86 -13.57 1.63 C-8.96 0.67 -4.72 -0.14 0 0 Z " fill="#C39C6C" transform="translate(401,614)"/>
    <path d="M0 0 C3.37 1.12 3.56 1.46 5.19 4.39 C5.77 5.42 5.77 5.42 6.37 6.48 C6.96 7.57 6.96 7.57 7.56 8.69 C7.96 9.4 8.36 10.1 8.77 10.83 C10.97 14.8 12.73 18.62 14 23 C9.46 18.97 6.92 14.64 4.19 9.25 C3.78 8.47 3.37 7.69 2.96 6.89 C0 1.18 0 1.18 0 0 Z " fill="#CE9C6A" transform="translate(425,611)"/>
    <path d="M0 0 C2.94 0.64 5.88 1.29 8.81 1.94 C9.65 2.12 10.48 2.3 11.34 2.49 C12.54 2.76 12.54 2.76 13.77 3.03 C14.88 3.27 14.88 3.27 16.01 3.52 C18 4 18 4 21 5 C21 5.66 21 6.32 21 7 C13.69 5.95 6.94 4.54 0 2 C0 1.34 0 0.68 0 0 Z " fill="#C69C6C" transform="translate(260,617)"/>
    <path d="M0 0 C6.83 1.29 13.41 2.8 20 5 C20 5.66 20 6.32 20 7 C13.18 5.77 6.61 4.11 0 2 C0 1.34 0 0.68 0 0 Z " fill="#D99965" transform="translate(487,668)"/>
    <path d="M0 0 C0.33 1.98 0.66 3.96 1 6 C-2.3 5.34 -5.6 4.68 -9 4 C-9 3.34 -9 2.68 -9 2 C-5.87 0.14 -3.63 -0.2 0 0 Z " fill="#EC834A" transform="translate(271,514)"/>
    <path d="M0 0 C0.66 0 1.32 0 2 0 C1.81 0.57 1.61 1.14 1.41 1.72 C-0.18 6.45 -1.67 11.19 -3 16 C-3.66 16 -4.32 16 -5 16 C-4.56 9.79 -3.08 5.39 0 0 Z " fill="#CA7E4F" transform="translate(284,626)"/>
    <path d="M0 0 C0.33 0.99 0.66 1.98 1 3 C-1.08 5.18 -3.22 6.96 -5.69 8.69 C-6.62 9.34 -6.62 9.34 -7.57 10.01 C-8.04 10.34 -8.52 10.66 -9 11 C-7.59 7.78 -5.9 5.68 -3.38 3.25 C-2.74 2.64 -2.11 2.02 -1.46 1.39 C-0.74 0.7 -0.74 0.7 0 0 Z " fill="#D1642E" transform="translate(190,127)"/>
    <path d="M0 0 C0 3 0 3 -1.75 5.04 C-2.49 5.75 -3.24 6.46 -4 7.19 C-4.74 7.9 -5.49 8.62 -6.25 9.36 C-7.12 10.17 -7.12 10.17 -8 11 C-8.66 10.67 -9.32 10.34 -10 10 C-9.24 8.66 -8.47 7.33 -7.69 6 C-7.26 5.26 -6.83 4.51 -6.39 3.75 C-5.7 2.88 -5.7 2.88 -5 2 C-4.01 2 -3.02 2 -2 2 C-1.34 1.34 -0.68 0.68 0 0 Z " fill="#DB9462" transform="translate(644,619)"/>
    <path d="M0 0 C1 2 2 4 3 6 C0.03 6.66 -2.94 7.32 -6 8 C-4.02 5.36 -2.04 2.72 0 0 Z " fill="#C99A6A" transform="translate(286,494)"/>
  </g>
</svg>
